<svg width="50" height="51" viewBox="0 0 50 51" fill="none" xmlns="http://www.w3.org/2000/svg">
<path d="M26.7566 38.3269C30.5992 40.2609 35.1757 41.6139 40.603 42.0863C41.1785 42.1364 41.6667 41.6778 41.6667 41.1002V34.6143C41.6667 34.1554 41.3544 33.7554 40.9092 33.6441L33.8827 31.8875C33.5419 31.8023 33.1814 31.9021 32.933 32.1505L26.7566 38.3269ZM26.7566 38.3269C20.2656 35.0601 15.8689 30.1356 13.0025 24.9977M13.0025 24.9977C10.0129 19.6392 8.68796 14.0486 8.38792 9.86462C8.34748 9.30072 8.80192 8.8335 9.36726 8.8335H15.8469C16.3236 8.8335 16.734 9.16996 16.8275 9.63738L18.6451 18.7254C18.7107 19.0532 18.608 19.3922 18.3716 19.6286L13.0025 24.9977Z" stroke="white" stroke-width="4"/>
</svg>
