<svg width="1922" height="173" viewBox="0 0 1922 173" fill="none" xmlns="http://www.w3.org/2000/svg">
<path d="M0 28.0742L53.3889 24.6451C106.778 20.9573 213.556 14.4874 320.333 7.37049C427.111 0.253596 533.889 -6.2163 640.667 10.7995C747.444 28.0742 854.222 69.4816 961 90.1852C1067.78 110.889 1174.56 110.889 1281.33 100.537C1388.11 90.1852 1494.89 69.4816 1601.67 62.5588C1708.44 55.8948 1815.22 62.3647 1868.61 66.0525L1922 69.4816V173H1868.61C1815.22 173 1708.44 173 1601.67 173C1494.89 173 1388.11 173 1281.33 173C1174.56 173 1067.78 173 961 173C854.222 173 747.444 173 640.667 173C533.889 173 427.111 173 320.333 173C213.556 173 106.778 173 53.3889 173H0V28.0742Z" fill="#1E1E1E"/>
</svg>
