<svg width="1920" height="200" viewBox="0 0 1920 200" fill="none" xmlns="http://www.w3.org/2000/svg">
<g clip-path="url(#clip0_18_806)">
<path d="M1920 125L1866.67 111.687C1813.33 98.125 1706.67 71.875 1600 68.3125C1493.33 65 1386.67 85 1280 81.6875C1173.33 78.125 1066.67 51.875 960 45C853.333 38.125 746.667 51.875 640 51.6875C533.333 51.875 426.667 38.125 320 35C213.333 31.875 106.667 38.125 53.3333 41.6875L0 45V-15H53.3333C106.667 -15 213.333 -15 320 -15C426.667 -15 533.333 -15 640 -15C746.667 -15 853.333 -15 960 -15C1066.67 -15 1173.33 -15 1280 -15C1386.67 -15 1493.33 -15 1600 -15C1706.67 -15 1813.33 -15 1866.67 -15H1920V125Z" fill="#2A2A2A"/>
</g>
<defs>
<clipPath id="clip0_18_806">
<rect width="1920" height="200" fill="white" transform="matrix(-1 0 0 -1 1920 200)"/>
</clipPath>
</defs>
</svg>
