<svg width="1922" height="174" viewBox="0 0 1922 174" fill="none" xmlns="http://www.w3.org/2000/svg">
<path d="M0 28.5742L53.3889 25.1451C106.778 21.4573 213.556 14.9874 320.333 7.87049C427.111 0.753596 533.889 -5.7163 640.667 11.2995C747.444 28.5742 854.222 69.9816 961 90.6852C1067.78 111.389 1174.56 111.389 1281.33 101.037C1388.11 90.6852 1494.89 69.9816 1601.67 63.0588C1708.44 56.3948 1815.22 62.8647 1868.61 66.5525L1922 69.9816V173.5H1868.61C1815.22 173.5 1708.44 173.5 1601.67 173.5C1494.89 173.5 1388.11 173.5 1281.33 173.5C1174.56 173.5 1067.78 173.5 961 173.5C854.222 173.5 747.444 173.5 640.667 173.5C533.889 173.5 427.111 173.5 320.333 173.5C213.556 173.5 106.778 173.5 53.3889 173.5H0V28.5742Z" fill="#1E1E1E"/>
</svg>
