<svg width="75" height="75" viewBox="0 0 75 75" fill="none" xmlns="http://www.w3.org/2000/svg">
<path d="M52.2856 3.4313H47.959L52.4584 8.31392V10.6383H43.1912V7.91665H47.6901L43.1912 3.03403V0.707275H52.2856V3.4313ZM41.3537 3.4313H37.0272L41.5266 8.31392V10.6383H32.2588V7.91665H36.7582L32.2588 3.03403V0.707275H41.3537V3.4313ZM30.5291 3.54263H25.8604V7.80298H30.5291V10.6383H22.5416V0.707275H30.5291V3.54263Z" fill="white"/>
<path d="M16.1795 68.3821L11.4352 15.1714H63.5643L58.8158 68.3733L37.4678 74.2925L16.1795 68.3821Z" fill="#1572B6"/>
<path d="M37.5006 69.769L54.75 64.9865L58.8082 19.5231H37.5006V69.769Z" fill="#33A9DC"/>
<path d="M37.5 38.8008H46.1355L46.7326 32.1182H37.5V25.592H53.8646L53.7082 27.3428L52.1045 45.3264H37.5V38.8008Z" fill="white"/>
<path d="M37.5393 55.7494L37.5106 55.7576L30.2426 53.7947L29.7774 48.5898H23.2272L24.1418 58.8367L37.5094 62.5475L37.5399 62.5387V55.7494H37.5393Z" fill="#EBEBEB"/>
<path d="M45.5812 45.0503L44.7949 53.7901L37.5164 55.7548V62.5446L50.8951 58.8368L50.9935 57.7341L52.1291 45.0503H45.5812Z" fill="white"/>
<path d="M37.5228 25.592V32.1176H21.7593L21.6281 30.651L21.331 27.3428L21.1746 25.592H37.5228ZM37.5 38.8014V45.3276H30.324L30.1933 43.861L29.8957 40.5522L29.7392 38.8014H37.5Z" fill="#EBEBEB"/>
</svg>
