<svg width="75" height="75" viewBox="0 0 75 75" fill="none" xmlns="http://www.w3.org/2000/svg">
<path d="M73.0911 34.2058L40.796 1.9124C38.9374 0.0526367 35.921 0.0526367 34.0595 1.9124L27.3546 8.61904L35.8612 17.1257C37.8388 16.4583 40.1052 16.906 41.6808 18.4815C42.4317 19.2331 42.9559 20.1808 43.1935 21.2162C43.4311 22.2517 43.3724 23.3331 43.0243 24.3368L51.2228 32.5364C53.2062 31.8526 55.4954 32.2944 57.0786 33.8812C59.2935 36.0942 59.2935 39.6819 57.0786 41.8962C56.5523 42.4228 55.9274 42.8405 55.2395 43.1255C54.5517 43.4105 53.8145 43.5572 53.0699 43.5572C52.3254 43.5572 51.5882 43.4105 50.9003 43.1255C50.2125 42.8405 49.5876 42.4228 49.0612 41.8962C48.2705 41.1049 47.7314 40.0974 47.5119 39.0005C47.2925 37.9035 47.4024 36.7662 47.8278 35.7315L40.1825 28.0856L40.1814 48.2073C40.7361 48.4805 41.2425 48.8423 41.6808 49.2784C43.895 51.4915 43.895 55.078 41.6808 57.2958C39.4665 59.5089 35.8777 59.5089 33.6657 57.2958C31.4521 55.0786 31.2704 51.4921 33.4835 49.2784C34.0308 48.7317 34.5704 48.3186 35.1564 48.0421V27.7341C34.5704 27.4575 34.0314 27.0474 33.4829 26.4972C31.8066 24.8214 31.4931 22.3604 32.3532 20.3003L24.0136 11.9138L1.8921 34.0564C0.0317521 35.9179 0.0434708 38.9343 1.90382 40.7946L34.2042 73.088C36.0634 74.9478 39.0821 74.9478 40.9443 73.088L73.0888 40.9446C74.9491 39.0837 74.9509 36.0655 73.0911 34.2058Z" fill="#F34F29"/>
</svg>
