<svg width="60" height="60" viewBox="0 0 60 60" fill="none" xmlns="http://www.w3.org/2000/svg">
<path fill-rule="evenodd" clip-rule="evenodd" d="M29.9979 7.5C17.5735 7.5 7.5 17.5735 7.5 30.0007C7.5 39.9416 13.9463 48.3742 22.8872 51.3508C24.0129 51.5566 24.4232 50.8618 24.4232 50.2651C24.4232 49.7319 24.4038 48.3162 24.3928 46.439C18.1343 47.7982 16.8138 43.4224 16.8138 43.4224C15.7903 40.8242 14.3151 40.1322 14.3151 40.1322C12.2722 38.7358 14.4698 38.7634 14.4698 38.7634C16.7282 38.9236 17.9161 41.0825 17.9161 41.0825C19.923 44.5205 23.1828 43.5273 24.4646 42.9527C24.669 41.4983 25.2492 40.5065 25.8928 39.9444C20.8968 39.3767 15.6439 37.4457 15.6439 28.8239C15.6439 26.368 16.521 24.3596 17.9603 22.7864C17.7282 22.2173 16.9561 19.9299 18.1799 16.8318C18.1799 16.8318 20.0694 16.2268 24.3679 19.1385C26.1622 18.6398 28.0876 18.3898 30.0007 18.3815C31.911 18.3898 33.8364 18.6398 35.6335 19.1385C39.9292 16.2268 41.8146 16.8318 41.8146 16.8318C43.0425 19.9299 42.2704 22.2173 42.0384 22.7864C43.4804 24.3596 44.352 26.368 44.352 28.8239C44.352 37.4678 39.0907 39.3698 34.0782 39.9264C34.8862 40.6212 35.6058 41.9941 35.6058 44.0937C35.6058 47.1007 35.5782 49.5275 35.5782 50.2651C35.5782 50.8673 35.9829 51.5676 37.1252 51.348C46.0592 48.3659 52.5 39.9388 52.5 30.0007C52.5 17.5735 42.4251 7.5 29.9979 7.5Z" fill="white"/>
</svg>
