<svg width="75" height="75" viewBox="0 0 75 75" fill="none" xmlns="http://www.w3.org/2000/svg">
<path d="M74.1886 42.3691L70.0671 29.6853L61.8986 4.54683C61.479 3.25425 59.6486 3.25425 59.229 4.54683L51.0611 29.6853H23.9392L15.7712 4.54683C15.3511 3.25425 13.5212 3.25425 13.1011 4.54683L4.93371 29.6859L0.811644 42.3691C0.628312 42.933 0.628213 43.5405 0.811362 44.1045C0.994511 44.6684 1.3515 45.1599 1.83118 45.5085L37.5001 71.4222L73.1685 45.508C73.648 45.1593 74.0048 44.6679 74.188 44.1041C74.3711 43.5403 74.3711 42.9329 74.188 42.3691" fill="#FC6D26"/>
<path d="M37.4999 71.4224L51.0608 29.686H23.939L37.4999 71.4218V71.4224Z" fill="#E24329"/>
<path d="M37.5 71.4224L23.9391 29.686H4.93359L37.5 71.4218V71.4224Z" fill="#FC6D26"/>
<path d="M4.93362 29.6853L0.810964 42.3691C0.627583 42.9329 0.627462 43.5403 0.81062 44.1042C0.993777 44.6681 1.3508 45.1595 1.83049 45.508L37.5 71.4222L4.93362 29.6859V29.6853Z" fill="#FCA326"/>
<path d="M4.93359 29.6853H23.9391L15.7711 4.54683C15.351 3.25425 13.5211 3.25425 13.101 4.54683L4.93359 29.6859V29.6853Z" fill="#E24329"/>
<path d="M37.5 71.4224L51.0609 29.686H70.067L37.5 71.4218V71.4224Z" fill="#FC6D26"/>
<path d="M70.0664 29.6853L74.1885 42.3691C74.3719 42.9329 74.372 43.5403 74.1888 44.1042C74.0057 44.6681 73.6486 45.1595 73.1689 45.508L37.5 71.4222L70.0664 29.6859V29.6853Z" fill="#FCA326"/>
<path d="M70.0664 29.6854H51.0615L59.2295 4.54756C59.6496 3.25498 61.4795 3.25498 61.8996 4.54756L70.0676 29.686L70.0664 29.6854Z" fill="#E24329"/>
</svg>
