<svg width="75" height="75" viewBox="0 0 75 75" fill="none" xmlns="http://www.w3.org/2000/svg">
<path d="M16.3207 68.1761L11.608 15.3181H63.392L58.6746 68.1679L37.4684 74.0466L16.3207 68.1761Z" fill="#E44D26"/>
<path d="M37.5 69.5531L54.6352 64.8023L58.667 19.6406H37.5V69.5531Z" fill="#F16529"/>
<path d="M37.5 39.2449H28.9213L28.3295 32.6056H37.5V26.1228H21.2444L21.3991 27.8625L22.9928 45.7271H37.5V39.2449ZM37.5 56.0806L37.4713 56.0882L30.252 54.1382L29.7903 48.9685H23.2823L24.1905 59.1474L37.4702 62.8341L37.5 62.8253V56.0806Z" fill="#EBEBEB"/>
<path d="M16.4261 0.953369H19.7203V4.20884H22.7343V0.953369H26.0291V10.81H22.7343V7.50942H19.7209V10.81H16.4261V0.953369ZM30.3609 4.22231H27.4605V0.953369H36.5572V4.22231H33.6556V10.81H30.3609V4.22231ZM38.001 0.953369H41.4357L43.5492 4.41685L45.6603 0.953369H49.0969V10.81H45.815V5.92446L43.5492 9.42896H43.4918L41.2242 5.92446V10.81H38.0004V0.953369H38.001ZM50.7369 0.953369H54.0322V7.5522H58.6652V10.8106H50.7369V0.953369Z" fill="white"/>
<path d="M37.4778 39.2449V45.7271H45.4606L44.7083 54.1347L37.4778 56.0865V62.8306L50.768 59.1474L50.8653 58.0517L52.3887 40.9851L52.5469 39.2449H50.7997H37.4778ZM37.4778 26.1228V32.6056H53.137L53.2665 31.1484L53.5624 27.8625L53.7176 26.1228H37.4778Z" fill="white"/>
</svg>
