<svg width="76" height="75" viewBox="0 0 76 75" fill="none" xmlns="http://www.w3.org/2000/svg">
<path d="M28.4006 57.4922C28.4006 57.4922 25.6074 59.1176 30.391 59.666C36.1871 60.3281 39.149 60.2332 45.5346 59.0262C45.5346 59.0262 47.2168 60.0779 49.5617 60.9896C35.242 67.1244 17.1547 60.634 28.4006 57.4922ZM26.6498 49.4854C26.6498 49.4854 23.5162 51.8051 28.3039 52.3008C34.4955 52.94 39.384 52.9922 47.8473 51.3633C47.8473 51.3633 49.015 52.5498 50.8543 53.1979C33.5445 58.2604 14.2648 53.5963 26.6498 49.4854Z" fill="#0074BD"/>
<path d="M41.3997 35.901C44.9299 39.9644 40.4739 43.6178 40.4739 43.6178C40.4739 43.6178 49.4323 38.9941 45.319 33.2015C41.4758 27.8021 38.5298 25.1203 54.4801 15.8695C54.4801 15.8701 29.4424 22.1215 41.3997 35.901Z" fill="#EA2D2E"/>
<path d="M60.3376 63.4155C60.3376 63.4155 62.4054 65.1205 58.0595 66.4383C49.7966 68.9414 23.6614 69.6961 16.4028 66.5385C13.7948 65.403 18.6874 63.8286 20.2267 63.4963C21.8316 63.1489 22.748 63.2121 22.748 63.2121C19.8458 61.169 3.99034 67.2258 14.6954 68.9631C43.8874 73.6952 67.9085 66.8321 60.3376 63.4155ZM29.7452 41.1879C29.7452 41.1879 16.4526 44.3455 25.0384 45.4934C28.6642 45.9786 35.8888 45.8672 42.623 45.3024C48.1249 44.8401 53.6462 43.8528 53.6462 43.8528C53.6462 43.8528 51.7079 44.6842 50.304 45.6416C36.8028 49.193 10.7275 47.5389 18.2351 43.9084C24.5819 40.8387 29.7452 41.1879 29.7452 41.1879ZM53.5911 54.5162C67.3144 47.3871 60.9687 40.5358 56.5396 41.4586C55.4567 41.6842 54.971 41.8805 54.971 41.8805C54.971 41.8805 55.3741 41.2483 56.1429 40.9764C64.9044 37.8973 71.6415 50.0602 53.3169 54.8778C53.3169 54.8766 53.5273 54.6862 53.5911 54.5162Z" fill="#0074BD"/>
<path d="M45.3188 0.929932C45.3188 0.929932 52.9173 8.53305 38.1101 20.2208C26.2355 29.5993 35.4024 34.9454 38.106 41.0561C31.1737 34.8024 26.089 29.2963 29.4997 24.1723C34.5083 16.6524 48.3839 13.0049 45.3188 0.929932Z" fill="#EA2D2E"/>
<path d="M31.0942 73.8404C44.2637 74.6824 64.4926 73.3717 64.9713 67.1396C64.9713 67.1396 64.0508 69.5022 54.0864 71.3766C42.8446 73.493 28.9766 73.2463 20.7542 71.8887C20.7542 71.8893 22.4387 73.2838 31.0942 73.8404Z" fill="#0074BD"/>
</svg>
