<svg width="75" height="75" viewBox="0 0 75 75" fill="none" xmlns="http://www.w3.org/2000/svg">
<path fill-rule="evenodd" clip-rule="evenodd" d="M53.022 33.5637C52.8052 30.757 52.1454 28.0506 51.2278 25.3992C49.3271 19.4789 46.2767 14.2395 41.98 9.73125C40.8937 8.59102 39.6855 7.54629 38.9278 6.12715C38.4485 5.22949 37.9921 4.31953 37.5251 3.41484L37.2292 2.66895C37.1794 2.84004 37.1478 2.90098 37.146 2.9625C37.1079 4.4373 36.2724 5.4375 35.2317 6.3709C34.0616 7.42148 32.9724 8.56172 31.848 9.66269L28.3903 14.2113C27.4575 15.9252 26.5259 17.6391 25.5942 19.3529L23.7251 24.402L23.6689 24.4805C22.6399 27.8602 22.1325 31.3348 21.8829 34.8445C21.7892 36.1635 21.8958 37.5018 21.9702 38.8277C22.0763 40.7232 22.4056 42.5865 22.8995 44.4205C24.6937 51.0838 28.3347 56.6109 33.3122 61.3066C34.2374 62.1791 35.1866 62.9725 36.1523 63.8027C36.3175 63.2373 36.4493 62.6719 36.5993 62.1064C36.7493 61.5434 36.9011 60.9832 37.0024 60.4184C36.9005 60.9832 36.7862 61.5434 36.6732 62.1064L36.1892 63.8027L36.6216 65.2682L37.0224 67.5439L37.2134 69.9188C37.2116 70.401 37.1923 70.8844 37.2216 71.366C37.2286 71.4891 37.3903 71.6027 37.4806 71.7211L38.2868 72.0041L39.1271 72.3311L38.9829 70.2199L38.9765 68.141L39.2665 64.974L39.4769 64.2844L40.0786 63.218C40.8216 62.6203 41.619 62.0777 42.2958 61.4127C43.5204 60.2092 44.7421 58.9904 45.8378 57.6727C47.264 55.9646 48.4817 54.0928 49.4653 52.0969C50.1228 50.7586 50.7415 49.3934 51.2536 47.9947C51.7048 46.7619 51.9843 45.4664 52.3399 44.1984C52.3716 44.107 52.4138 44.0174 52.4337 43.9242C53.1685 40.5018 53.2921 37.0447 53.022 33.5637ZM39.1944 62.4943L38.7228 61.4613L39.1944 62.4943L39.8876 63.0861L39.1944 62.4943Z" fill="#4FAA41"/>
</svg>
