<svg width="75" height="75" viewBox="0 0 75 75" fill="none" xmlns="http://www.w3.org/2000/svg">
<path d="M68.5243 57.3088C64.503 57.1992 61.4321 57.5736 58.8065 58.6804C58.0606 58.9951 56.87 59.0039 56.7481 59.9384C57.1583 60.3679 57.2221 61.0101 57.5479 61.5386C58.1749 62.5523 59.2331 63.9128 60.1776 64.6254C61.21 65.4046 62.2735 66.2373 63.3798 66.9117C65.3473 68.1111 67.544 68.7966 69.4384 69.9984C70.5551 70.7074 71.6643 71.5998 72.7536 72.399C73.2926 72.7945 73.6542 73.4091 74.3544 73.657V73.5433C73.9864 73.0746 73.8915 72.4312 73.554 71.942L72.0675 70.4554C70.6143 68.5265 68.7692 66.832 66.8081 65.4252C65.2442 64.3025 61.7444 62.7861 61.0923 60.9668L60.978 60.8525C62.0866 60.7271 63.3844 60.3263 64.4081 60.0515C66.1272 59.591 67.6635 59.7099 69.4384 59.2517L71.8389 58.5656V58.1086C70.9419 57.188 70.302 55.9693 69.3241 55.1361C66.7635 52.9564 63.9698 50.7785 61.0928 48.9621C59.4967 47.9554 57.5251 47.3009 55.8335 46.4472C55.2645 46.1595 54.2649 46.0101 53.8893 45.532C53.0005 44.4 52.5171 42.9644 51.8321 41.6455C50.3971 38.8816 48.988 35.8634 47.7165 32.9554C46.8493 30.9726 46.2827 29.0179 45.201 27.239C40.0096 18.7037 34.4221 13.5527 25.7661 8.48902C23.9239 7.41206 21.7061 6.98726 19.3624 6.43062C18.1055 6.35503 16.8475 6.27827 15.5901 6.20152C14.8219 5.88159 14.0239 4.94234 13.3038 4.48648C10.4362 2.67476 3.08034 -1.26567 0.956905 3.91519C-0.384306 7.18531 2.9614 10.3751 4.1573 12.0328C4.99753 13.1941 6.07273 14.4978 6.67273 15.805C7.06765 16.6646 7.13562 17.5265 7.4737 18.4353C8.30398 20.6748 9.02761 23.1111 10.1028 25.18C10.646 26.2277 11.2448 27.3304 11.9321 28.2668C12.3528 28.8416 13.0753 29.0947 13.1889 29.9818C12.4835 30.9697 12.443 32.5037 12.0464 33.7552C10.2592 39.389 10.9337 46.3921 13.5329 50.5617C14.3298 51.8425 16.2089 54.5877 18.7917 53.5341C21.051 52.6142 20.5466 49.7619 21.1928 47.2459C21.3387 46.6757 21.2491 46.2562 21.5356 45.8742V45.9884L23.594 50.1041C25.1175 52.5574 27.8198 55.1209 30.1108 56.8505C31.2985 57.7476 32.2337 59.298 33.7694 59.823V59.7082H33.6551C33.3575 59.2447 32.8917 59.0525 32.512 58.6798C31.6173 57.8027 30.6223 56.7123 29.8829 55.7074C27.7993 52.8791 25.9583 49.7836 24.2807 46.5615C23.4792 45.0222 22.7825 43.3253 22.1075 41.7591C21.8473 41.1556 21.8509 40.2421 21.3083 39.9298C20.5682 41.0771 19.479 42.0052 18.9071 43.3599C17.9925 45.5255 17.8747 48.167 17.5354 50.9056C17.335 50.9771 17.4241 50.9279 17.3063 51.0193C15.7137 50.6355 15.1548 48.9966 14.5624 47.5898C13.0659 44.0332 12.7876 38.3074 14.1048 34.2134C14.4458 33.1535 15.9856 29.8183 15.3622 28.8392C15.0645 27.863 14.0825 27.2982 13.5335 26.5523C12.8532 25.63 12.1747 24.416 11.703 23.3507C10.4784 20.5787 9.90652 17.4656 8.61687 14.6625C7.99987 13.3224 6.95749 11.966 6.10144 10.7753C5.15398 9.45523 4.09226 8.48316 3.35749 6.88765C3.09616 6.32046 2.74167 5.41226 3.12839 4.82925C3.25144 4.43609 3.42605 4.27202 3.81452 4.1437C4.4778 3.63218 6.32468 4.31363 7.01491 4.60015C8.84831 5.36187 10.3788 6.08726 11.9321 7.11617C12.6768 7.6107 13.4315 8.56636 14.3327 8.8312H15.3616C16.9712 9.20093 18.7741 8.94546 20.2782 9.40249C22.936 10.2099 25.3178 11.4668 27.4805 12.8326C34.07 16.9939 39.4583 22.9166 43.1438 29.9824C43.7368 31.1203 43.9934 32.2054 44.5155 33.4125C45.569 35.8459 46.8962 38.3496 47.9444 40.7296C48.9909 43.1039 50.0104 45.4998 51.4893 47.4755C52.2669 48.5138 55.2692 49.0711 56.6344 49.6482C57.5907 50.0519 59.1581 50.4738 60.0645 51.0193C61.7948 52.0634 63.4717 53.3062 65.0954 54.45C65.9057 55.0213 68.4001 56.2757 68.5243 57.3088ZM17.4194 13.7496C16.5809 13.7337 15.988 13.841 15.361 13.9775V14.0918H15.4753C15.8755 14.9132 16.5815 15.4429 17.0755 16.1502C17.4563 16.9511 17.8378 17.7509 18.2192 18.5507L18.3329 18.4377C19.0413 17.9378 19.3653 17.1404 19.3612 15.9216C19.0776 15.6234 19.036 15.2496 18.7899 14.8933C18.4641 14.4181 17.8319 14.148 17.4194 13.7496Z" fill="#00618A"/>
</svg>
