<svg width="76" height="75" viewBox="0 0 76 75" fill="none" xmlns="http://www.w3.org/2000/svg">
<path d="M66.5768 17.7739L40.7387 2.77092C39.1092 1.8428 36.9875 1.8428 35.3451 2.77092L9.23105 17.7739C7.54941 18.7412 6.35938 20.5594 6.35938 22.5041V52.4701C6.35938 54.4149 7.58047 56.2336 9.26211 57.2063L16.1615 61.125C19.4592 62.7492 20.6246 62.7492 22.1252 62.7492C27.0078 62.7492 29.7969 59.7967 29.7969 54.6469V25.0629C29.7969 24.6451 29.5795 24.0235 29.1693 24.0235H25.8746C25.4574 24.0235 24.5234 24.6451 24.5234 25.0623V54.6463C24.5234 56.9291 22.4586 59.2008 18.5996 57.2713L11.4705 53.1621C11.2221 53.0274 11.0469 52.7561 11.0469 52.4701V22.5041C11.0469 22.2217 11.3721 21.9381 11.6223 21.7934L37.652 6.81624C37.8951 6.67854 38.2525 6.67854 38.4951 6.81624L64.2072 21.7899C64.4533 21.9381 64.3666 22.2129 64.3666 22.5041V52.4701C64.3666 52.7561 64.4738 53.0344 64.2307 53.1721L38.399 68.158C38.1775 68.291 37.9027 68.291 37.6602 68.158L31.035 64.2035C30.8352 64.0875 30.5979 64.0459 30.4062 64.1531C28.5629 65.1979 28.223 65.3367 26.4939 65.9362C26.0686 66.0844 25.441 66.3416 26.7342 67.0664L35.4049 72.1957C36.2327 72.6739 37.1718 72.9257 38.1277 72.9258C39.0898 72.9258 40.032 72.6762 40.8623 72.1957L66.5762 57.2063C68.2578 56.2266 69.0547 54.4149 69.0547 52.4701V22.5041C69.0547 20.5594 68.2578 18.7459 66.5768 17.7739ZM46.1504 47.7217C39.2797 47.7217 37.7662 45.8262 37.2617 42.4096C37.2031 42.0416 36.8908 41.6016 36.5164 41.6016H33.1584C32.743 41.6016 32.409 42.1055 32.409 42.5192C32.409 46.8938 34.7873 52.1942 46.151 52.1942C54.377 52.1942 59.0932 48.9979 59.0932 43.3412C59.0932 37.7326 55.3039 36.2608 47.3264 35.2049C39.2627 34.1391 38.4436 33.6006 38.4436 31.7115C38.4436 30.1541 39.1373 28.077 45.108 28.077C50.443 28.077 52.4094 29.2219 53.2186 32.8178C53.2877 33.1559 53.5965 33.3985 53.9451 33.3985H57.3166C57.524 33.3985 57.7221 33.3147 57.8674 33.1664C58.008 33.0071 58.0824 32.8073 58.0637 32.5928C57.5416 26.4006 53.4277 23.5149 45.1074 23.5149C37.7064 23.5149 33.2914 26.6403 33.2914 31.8791C33.2914 37.5616 37.6842 39.1319 44.7887 39.8344C53.2877 40.6676 53.9486 41.9098 53.9486 43.5815C53.9486 46.4848 51.6178 47.7217 46.1504 47.7217Z" fill="#83CD29"/>
</svg>
