<svg width="75" height="83" viewBox="0 0 75 83" fill="none" xmlns="http://www.w3.org/2000/svg">
<g clip-path="url(#clip0_15_2117)">
<path d="M30.1579 1.92358L29.7366 2.17841C29.0664 2.58379 28.4351 3.03703 27.846 3.53228L29.0612 2.67752H39.375L41.25 16.8751L31.875 26.2501L22.5 32.7664V40.2805C22.5 45.5286 25.2429 50.3952 29.7326 53.1128L39.6021 59.0867L18.75 71.2504H14.7283L7.23257 66.7133C2.74286 63.9957 0 59.1291 0 53.881V28.6137C0 23.3639 2.74461 18.496 7.2366 15.7789L29.7366 2.16919C29.8761 2.08485 30.0165 2.00299 30.1579 1.92358Z" fill="url(#paint0_radial_15_2117)"/>
<path d="M30.1579 1.92358L29.7366 2.17841C29.0664 2.58379 28.4351 3.03703 27.846 3.53228L29.0612 2.67752H39.375L41.25 16.8751L31.875 26.2501L22.5 32.7664V40.2805C22.5 45.5286 25.2429 50.3952 29.7326 53.1128L39.6021 59.0867L18.75 71.2504H14.7283L7.23257 66.7133C2.74286 63.9957 0 59.1291 0 53.881V28.6137C0 23.3639 2.74461 18.496 7.2366 15.7789L29.7366 2.16919C29.8761 2.08485 30.0165 2.00299 30.1579 1.92358Z" fill="url(#paint1_linear_15_2117)"/>
<path d="M52.5001 31.875V40.2756C52.5001 45.5237 49.7572 50.3902 45.2675 53.1079L22.7675 66.7271C18.1647 69.5132 12.4379 69.6137 7.75415 67.0288L29.7325 80.3325C34.5074 83.2228 40.4924 83.2228 45.2675 80.3325L67.7675 66.7131C72.2572 63.9954 74.9999 59.1289 74.9999 53.8808V47.8125L73.1249 45L52.5001 31.875Z" fill="url(#paint2_radial_15_2117)"/>
<path d="M52.5001 31.875V40.2756C52.5001 45.5237 49.7572 50.3902 45.2675 53.1079L22.7675 66.7271C18.1647 69.5132 12.4379 69.6137 7.75415 67.0288L29.7325 80.3325C34.5074 83.2228 40.4924 83.2228 45.2675 80.3325L67.7675 66.7131C72.2572 63.9954 74.9999 59.1289 74.9999 53.8808V47.8125L73.1249 45L52.5001 31.875Z" fill="url(#paint3_linear_15_2117)"/>
<path d="M67.7634 15.7787L45.2634 2.16896C40.6384 -0.628668 34.8789 -0.715331 30.1836 1.90896L29.7366 2.17933C25.2446 4.89643 22.5 9.76419 22.5 15.0141V32.7964L29.7366 28.419C34.5096 25.5321 40.4904 25.5321 45.2634 28.419L67.7634 42.0287C72.1149 44.661 74.8268 49.3114 74.9919 54.3722C74.9974 54.2087 75 54.045 75 53.8808V28.6134C75 23.3636 72.2554 18.4958 67.7634 15.7787Z" fill="url(#paint4_radial_15_2117)"/>
<path d="M67.7634 15.7787L45.2634 2.16896C40.6384 -0.628668 34.8789 -0.715331 30.1836 1.90896L29.7366 2.17933C25.2446 4.89643 22.5 9.76419 22.5 15.0141V32.7964L29.7366 28.419C34.5096 25.5321 40.4904 25.5321 45.2634 28.419L67.7634 42.0287C72.1149 44.661 74.8268 49.3114 74.9919 54.3722C74.9974 54.2087 75 54.045 75 53.8808V28.6134C75 23.3636 72.2554 18.4958 67.7634 15.7787Z" fill="url(#paint5_linear_15_2117)"/>
</g>
<defs>
<radialGradient id="paint0_radial_15_2117" cx="0" cy="0" r="1" gradientUnits="userSpaceOnUse" gradientTransform="translate(25.1599 16.1969) rotate(110.528) scale(62.5607 109.119)">
<stop offset="0.06441" stop-color="#AE7FE2"/>
<stop offset="1" stop-color="#0078D4"/>
</radialGradient>
<linearGradient id="paint1_linear_15_2117" x1="25.3348" y1="67.2535" x2="16.4087" y2="51.8151" gradientUnits="userSpaceOnUse">
<stop stop-color="#114A8B"/>
<stop offset="1" stop-color="#0078D4" stop-opacity="0"/>
</linearGradient>
<radialGradient id="paint2_radial_15_2117" cx="0" cy="0" r="1" gradientUnits="userSpaceOnUse" gradientTransform="translate(12.0561 64.4083) rotate(-8.36717) scale(58.2193 38.4578)">
<stop offset="0.133928" stop-color="#D59DFF"/>
<stop offset="1" stop-color="#5E438F"/>
</radialGradient>
<linearGradient id="paint3_linear_15_2117" x1="68.1687" y1="43.8315" x2="58.6036" y2="57.5468" gradientUnits="userSpaceOnUse">
<stop stop-color="#493474"/>
<stop offset="1" stop-color="#8C66BA" stop-opacity="0"/>
</linearGradient>
<radialGradient id="paint4_radial_15_2117" cx="0" cy="0" r="1" gradientUnits="userSpaceOnUse" gradientTransform="translate(69.4785 45.945) rotate(-165.772) scale(46.7302 78.666)">
<stop offset="0.0584996" stop-color="#50E6FF"/>
<stop offset="1" stop-color="#436DCD"/>
</radialGradient>
<linearGradient id="paint5_linear_15_2117" x1="24.3296" y1="1.98103" x2="38.4128" y2="1.98103" gradientUnits="userSpaceOnUse">
<stop stop-color="#2D3F80"/>
<stop offset="1" stop-color="#436DCD" stop-opacity="0"/>
</linearGradient>
<clipPath id="clip0_15_2117">
<rect width="75" height="82.5" fill="white"/>
</clipPath>
</defs>
</svg>
