<svg width="75" height="75" viewBox="0 0 75 75" fill="none" xmlns="http://www.w3.org/2000/svg">
<path d="M37.5 19.3588C17.7305 19.3588 1.70276 27.481 1.70276 37.5C1.70276 47.5189 17.7305 55.6412 37.5 55.6412C57.2696 55.6412 73.2973 47.5189 73.2973 37.5C73.2973 27.481 57.2696 19.3588 37.5 19.3588ZM28.1854 41.0343C27.3311 41.8336 26.3824 42.1635 25.3377 42.5033C24.293 42.8437 22.9635 42.7734 21.3469 42.7734H17.683L16.6676 48.6328H12.3897L16.2071 28.7109H24.4336C26.9086 28.7109 28.7139 29.4228 29.8489 30.7218C30.9838 32.0209 31.3248 33.8648 30.8725 36.1927C30.6856 37.1519 30.3709 38.0437 29.9268 38.8383C29.4665 39.6581 28.8787 40.3994 28.1854 41.0343ZM40.6723 42.7734L42.3604 34.3242C42.5526 33.3351 42.4822 32.6004 42.1488 32.2412C41.8149 31.8814 41.1047 31.6406 40.019 31.6406H36.6264L34.4403 42.7734H30.1957L34.0131 23.4375H38.2576L37.2428 28.7109H41.0238C43.4033 28.7109 45.044 29.1884 45.9469 30.0181C46.8498 30.8478 47.1205 31.9845 46.7596 33.8431L44.9836 42.7734H40.6723ZM64.2615 36.2238C64.0752 37.183 63.76 38.0595 63.3164 38.8535C62.8723 39.6486 62.2922 40.3758 61.5756 41.0343C60.7213 41.8336 59.7721 42.1635 58.7279 42.5033C57.6838 42.8437 56.3531 42.7734 54.7365 42.7734H51.0727L50.0578 48.6328H45.7799L49.5967 28.7109H57.8238C60.2988 28.7109 62.1041 29.4228 63.2385 30.7218C64.3723 32.0209 64.7139 33.8965 64.2615 36.2238ZM56.2026 31.6406H53.2723L51.6744 39.8437H54.2772C56.001 39.8437 57.2865 39.6738 58.1303 39.0234C58.9752 38.3742 59.5442 37.3664 59.8401 35.847C60.1237 34.3875 59.9947 33.249 59.4533 32.649C58.9114 32.049 57.8279 31.6406 56.2026 31.6406ZM22.8129 31.6406H19.8821L18.2842 39.8437H20.8864C22.6108 39.8437 23.8957 39.6738 24.7401 39.0234C25.5844 38.3742 26.1539 37.3664 26.4492 35.847C26.7328 34.3875 26.6039 33.249 26.0625 32.649C25.5211 32.049 24.4383 31.6406 22.8129 31.6406Z" fill="#6181B6"/>
</svg>
