<svg width="75" height="75" viewBox="0 0 75 75" fill="none" xmlns="http://www.w3.org/2000/svg">
<path d="M54.9663 53.972C55.4263 50.1441 55.2886 49.5821 58.1398 50.2027L58.8634 50.2659C61.056 50.3655 63.9241 49.9132 65.6093 49.1304C69.2368 47.447 71.3872 44.6374 67.8113 45.3751C59.6527 47.0585 59.0919 44.2958 59.0919 44.2958C67.707 31.5136 71.3081 15.2872 68.1991 11.3152C59.7206 0.481752 45.0446 5.6046 44.7991 5.73703L44.7206 5.75167C43.1087 5.4171 41.3046 5.2173 39.2778 5.18449C35.5859 5.12355 32.7845 6.15246 30.6593 7.76378C30.6593 7.76378 4.47785 -3.02274 5.69601 21.3288C5.955 26.5091 13.121 60.5269 21.6687 50.2519C24.7929 46.4948 27.8116 43.3179 27.8116 43.3179C29.3105 44.3134 31.1058 44.822 32.9878 44.6392L33.1337 44.515C33.088 44.9814 33.1079 45.4378 33.1917 45.978C30.9903 48.4384 31.6372 48.8702 27.2351 49.7761C22.7808 50.6937 25.3976 52.3279 27.1056 52.755C29.1769 53.273 33.9681 54.0066 37.206 49.4749L37.0771 49.9917C37.9407 50.6831 37.8827 54.9587 38.0046 58.0132C38.1271 61.0683 38.3316 63.9189 38.9544 65.5999C39.5773 67.2804 40.312 71.6093 46.0976 70.3695C50.9327 69.3359 54.6294 67.8447 54.9663 53.972Z" fill="black"/>
<path d="M44.2137 73.3921C41.6549 73.3921 39.9885 72.4025 38.9766 71.4468C37.449 70.0054 36.8432 68.1486 36.4811 67.0394L36.3246 66.5765C35.5957 64.6089 35.3484 61.7759 35.202 58.1278C35.1797 57.58 35.1645 57.0157 35.1475 56.4175C35.1352 55.9798 35.1199 55.4308 35.0977 54.8566C34.1758 55.2961 33.1973 55.6053 32.1902 55.7753C30.3861 56.0835 28.4467 55.9839 26.4246 55.4782C24.9978 55.1214 23.5154 54.3819 22.6705 53.24C20.2078 55.3968 17.8588 55.1044 16.5791 54.6773C14.3215 53.9243 12.3012 51.8085 10.4021 48.2103C9.04922 45.6468 7.74082 42.3069 6.51269 38.2827C4.37402 31.2749 3.01523 23.8939 2.89453 21.4704C2.51484 13.8855 4.55683 8.46084 8.9625 5.34893C15.9123 0.439944 26.4422 3.32686 30.2812 4.6376C32.8605 3.08311 35.8951 2.32666 39.324 2.38116C41.1656 2.41104 42.9193 2.57276 44.5482 2.86338C46.2475 2.32901 49.6037 1.56202 53.4457 1.61006C60.5244 1.69444 66.3902 4.45303 70.408 9.5876C73.2756 13.2509 71.8576 20.9437 70.7578 25.2034C69.2098 31.1952 66.4975 37.5679 63.1658 43.1155C64.0705 43.122 65.3812 43.0136 67.2445 42.6286C70.9207 41.8698 71.9959 43.8409 72.2877 44.7234C73.4566 48.2636 68.3754 50.939 66.7904 51.6749C64.7596 52.6177 61.4484 53.1919 58.7367 53.0677L58.6184 53.0601L57.9059 52.9974L57.8355 53.5915L57.7676 54.1722C57.5853 61.2028 56.5811 65.6554 54.5145 68.5974C52.3482 71.6817 49.3377 72.546 46.6857 73.1144C45.7811 73.3077 44.959 73.3921 44.2137 73.3921ZM38.8289 47.8036C40.4807 49.1255 40.6254 51.6128 40.7549 56.261C40.7713 56.8411 40.7865 57.3901 40.807 57.9028C40.8691 59.4556 41.015 63.0913 41.5846 64.6276C41.6648 64.845 41.7369 65.0653 41.8131 65.2991C42.4477 67.2421 42.7658 68.2165 45.5098 67.63C47.8131 67.136 48.9973 66.6931 49.9242 65.3735C51.2713 63.4552 52.0248 59.5962 52.1631 53.9038L54.9656 53.9718L52.1824 53.6378L52.2645 52.9429C52.5311 50.6519 52.7232 48.9972 54.2543 47.9026C55.483 47.0249 56.8828 47.1099 57.9978 47.3109C56.7727 46.3851 56.434 45.2993 56.3438 44.854L56.11 43.7026L56.7668 42.7282C60.5502 37.1149 63.6697 30.2161 65.3268 23.8001C67.0295 17.2077 66.5103 13.7067 65.9912 13.0446C59.1187 4.26319 47.2014 7.88897 45.9568 8.3003L45.7465 8.41397L44.6918 8.61026L44.1516 8.49834C42.6621 8.18897 41.0074 8.01788 39.2338 7.98916C36.4471 7.94229 34.1988 8.60088 32.3555 9.99952L31.0764 10.9692L29.5922 10.3581C26.4211 9.06143 17.107 6.45459 12.1922 9.93565C9.46406 11.8681 8.22129 15.6544 8.49785 21.1898C8.58926 23.0173 9.83086 29.9355 11.8793 36.645C14.71 45.9175 17.2822 48.9978 18.3562 49.3558C18.5437 49.4191 19.0301 49.0411 19.5141 48.4599C21.532 46.0408 23.6216 43.6823 25.7801 41.3876L27.4031 39.6796L29.3654 40.9833C30.1564 41.5089 31.0289 41.8071 31.9248 41.8634L36.6047 37.872L35.9268 44.7907C35.9115 44.946 35.9039 45.1575 35.9648 45.5501L36.1687 46.8614L35.284 47.8505L35.182 47.9653L37.7531 49.1519L38.8289 47.8036Z" fill="black"/>
<path d="M67.811 45.375C59.6518 47.0584 59.0911 44.2957 59.0911 44.2957C67.7061 31.5129 71.3073 15.2859 68.1995 11.315C59.721 0.482231 45.0438 5.60508 44.7989 5.73809L44.7198 5.75215C43.1079 5.41758 41.3038 5.21836 39.2759 5.18555C35.5839 5.1252 32.7837 6.15352 30.6585 7.76485C30.6585 7.76485 4.47644 -3.02109 5.69402 21.3299C5.953 26.5107 13.119 60.5285 21.6667 50.2535C24.7909 46.4965 27.8091 43.3195 27.8091 43.3195C29.3085 44.315 31.1032 44.8236 32.9846 44.6408L33.1311 44.5166C33.0854 44.983 33.1065 45.4395 33.1897 45.9797C30.9878 48.44 31.6346 48.8719 27.2325 49.7777C22.7782 50.6953 25.395 52.3295 27.1036 52.7566C29.1743 53.2746 33.9661 54.0082 37.2034 49.4766L37.0739 49.9934C37.937 50.6848 38.5428 54.4887 38.4415 57.9369C38.3395 61.3852 38.2716 63.7529 38.9518 65.6022C39.6315 67.4514 40.3089 71.6115 46.0956 70.3717C50.9307 69.3357 53.4362 66.6504 53.7854 62.1715C54.0327 58.9869 54.5923 59.458 54.628 56.6109L55.0774 55.2633C55.5954 50.9467 55.1594 49.5545 58.1389 50.202L58.8626 50.2652C61.0551 50.3649 63.9245 49.9125 65.6091 49.1297C69.236 47.4475 71.387 44.6373 67.811 45.375Z" fill="#336791"/>
<path d="M44.5061 71.6642C39.6826 71.6642 38.1545 67.8444 37.5293 66.2823C36.6141 63.9931 36.4166 55.1091 36.6205 47.8235C36.6236 47.7007 36.6509 47.5796 36.7009 47.4674C36.7509 47.3551 36.8226 47.2538 36.912 47.1694C37.0013 47.085 37.1064 47.0191 37.2213 46.9755C37.3362 46.9319 37.4586 46.9114 37.5815 46.9153C37.7042 46.9187 37.825 46.9462 37.9371 46.9963C38.0492 47.0463 38.1503 47.118 38.2347 47.2072C38.319 47.2964 38.3849 47.4014 38.4287 47.5161C38.4725 47.6308 38.4932 47.753 38.4897 47.8757C38.2547 56.2786 38.5881 63.8935 39.2654 65.588C40.3225 68.23 41.9256 70.5409 46.4578 69.57C50.7604 68.6472 52.3717 67.0159 53.0895 62.8552C53.6403 59.6624 54.7295 50.5792 54.8637 48.7868C54.8727 48.6643 54.9057 48.5448 54.961 48.4351C55.0162 48.3254 55.0926 48.2277 55.1856 48.1476C55.2787 48.0675 55.3867 48.0065 55.5034 47.9682C55.6201 47.9299 55.7432 47.915 55.8656 47.9243C56.1128 47.943 56.3424 48.0591 56.5041 48.2469C56.6658 48.4348 56.7464 48.6791 56.7281 48.9263C56.5881 50.7925 55.5041 59.8581 54.9322 63.1733C54.085 68.0876 51.8942 70.3165 46.8498 71.3981C45.9926 71.5815 45.2139 71.6636 44.5061 71.6642ZM18.3522 53.0073C17.9306 53.0059 17.5119 52.9366 17.1123 52.8022C13.9793 51.7569 10.9951 46.6546 8.2424 37.6353C6.14709 30.7698 4.81935 23.6038 4.70275 21.2747C4.35763 14.37 6.13537 9.48506 9.98791 6.75635C17.6092 1.35635 30.4301 6.49853 30.9721 6.72002C31.2017 6.8138 31.3846 6.99495 31.4807 7.22362C31.5767 7.45229 31.578 7.70975 31.4842 7.93935C31.3904 8.16896 31.2093 8.3519 30.9806 8.44794C30.7519 8.54398 30.4945 8.54525 30.2649 8.45146C30.1412 8.40107 17.8471 3.47568 11.0649 8.28447C7.77072 10.62 6.25841 14.9595 6.56955 21.1815C6.6674 23.1438 7.90783 30.1376 10.0301 37.0892C12.4875 45.1411 15.2842 50.2218 17.7035 51.0286C18.0832 51.1552 19.2387 51.5401 20.8904 49.5538C22.8167 47.2404 24.8151 44.9881 26.8828 42.8003C27.0558 42.6277 27.2895 42.5297 27.5339 42.5273C27.7782 42.5248 28.0138 42.6181 28.1903 42.7872C28.3667 42.9563 28.4699 43.1877 28.4779 43.432C28.4858 43.6762 28.3979 43.9138 28.2328 44.094C28.2047 44.1233 25.3928 47.063 22.3283 50.7497C20.877 52.4952 19.486 53.0073 18.3522 53.0073ZM59.0332 45.1294C58.8637 45.1292 58.6975 45.0829 58.5522 44.9955C58.407 44.9081 58.2883 44.7828 58.2087 44.6332C58.1292 44.4835 58.0918 44.315 58.1006 44.1458C58.1094 43.9765 58.164 43.8128 58.2586 43.6722C66.9674 30.7493 70.0242 15.1347 67.4063 11.789C64.111 7.57842 59.458 5.37939 53.5758 5.25224C49.2205 5.15849 45.7588 6.2706 45.1928 6.46455L45.0504 6.52256C44.4815 6.70127 44.0449 6.38955 43.8803 6.0251C43.7864 5.81629 43.7722 5.58034 43.8403 5.36177C43.9084 5.14319 44.0541 4.95709 44.25 4.83857C44.277 4.82275 44.3625 4.78642 44.5014 4.73545L44.4891 4.73896L44.5014 4.73486C45.4629 4.38271 48.9774 3.32861 53.3303 3.37842C59.8389 3.44756 65.2154 5.95713 68.8776 10.637C70.6102 12.8513 70.6143 17.9524 68.8887 24.6333C67.1297 31.4448 63.8197 38.7649 59.8084 44.7175C59.6291 44.9853 59.3338 45.1294 59.0332 45.1294ZM59.4785 51.1118C57.9914 51.1118 56.6584 50.9021 55.8604 50.4239C55.0401 49.9323 54.8836 49.2644 54.8631 48.9099C54.6393 44.9782 56.8084 44.2938 57.9147 43.9815C57.7606 43.7483 57.5414 43.4741 57.3147 43.1911C56.6695 42.3849 55.786 41.281 55.1051 39.6298C54.9985 39.372 54.6645 38.7726 54.2778 38.0782C52.1807 34.3177 47.8172 26.4925 50.6203 22.4853C51.9176 20.6308 54.501 19.9007 58.3072 20.3079C57.1875 16.8966 51.8555 6.22549 39.2033 6.01806C35.3983 5.95478 32.2776 7.1249 29.9326 9.49267C24.6826 14.7948 24.8725 24.3884 24.8754 24.4845C24.8786 24.6072 24.8577 24.7294 24.8137 24.844C24.7697 24.9586 24.7036 25.0634 24.6191 25.1525C24.5346 25.2416 24.4334 25.3131 24.3212 25.3631C24.2091 25.413 24.0882 25.4404 23.9654 25.4436C23.8427 25.4469 23.7206 25.4259 23.6059 25.3819C23.4913 25.3379 23.3865 25.2718 23.2974 25.1873C23.2083 25.1028 23.1368 25.0016 23.0868 24.8895C23.0369 24.7773 23.0095 24.6564 23.0063 24.5337C22.9945 24.1077 22.7988 14.0401 28.6043 8.17666C31.3213 5.43271 34.8979 4.07803 39.2344 4.14892C47.3285 4.28193 52.5387 8.39697 55.4836 11.8253C58.694 15.5618 60.2678 19.6833 60.3973 21.0591C60.494 22.0821 59.7598 22.2866 59.6115 22.3171L59.274 22.3247C55.5387 21.7265 53.1422 22.1419 52.1514 23.5575C50.0192 26.605 54.1471 34.0071 55.9096 37.1683C56.3596 37.9745 56.6842 38.5575 56.833 38.9173C57.4119 40.3212 58.1672 41.2646 58.7736 42.0228C59.3074 42.6896 59.7697 43.2679 59.935 43.9464C60.0117 44.0812 61.101 45.6925 67.5645 44.3583C69.1846 44.0243 70.1561 44.3097 70.4531 45.2079C71.0373 46.9745 67.7596 49.0353 65.9449 49.8778C64.319 50.6337 61.7238 51.1118 59.4785 51.1118ZM56.727 48.7558C56.932 48.9626 57.958 49.3194 60.0826 49.228C61.9717 49.1472 63.9639 48.7364 65.1592 48.1815C66.6879 47.4714 67.7086 46.6774 68.2371 46.1354L67.9442 46.1894C63.8115 47.0425 60.8883 46.9288 59.2559 45.8513C59.1462 45.7788 59.0406 45.7003 58.9395 45.6163C58.7625 45.686 58.599 45.7317 58.4824 45.7646C57.5567 46.0241 56.5992 46.2931 56.727 48.7558ZM30.0305 53.9794C29.0039 53.9794 27.9235 53.8394 26.8201 53.5634C25.677 53.2774 23.7498 52.4167 23.7791 51.0028C23.8125 49.4167 26.1194 48.9409 26.9877 48.7622C30.1248 48.1159 30.3293 47.8569 31.3096 46.6118C31.5955 46.2491 31.9512 45.7974 32.4363 45.256C33.1565 44.4497 33.9434 44.0413 34.7754 44.0413C35.3549 44.0413 35.8301 44.2376 36.1442 44.3683C37.1449 44.7831 37.9799 45.7862 38.3233 46.9856C38.6332 48.0679 38.485 49.1097 37.9072 49.9188C36.0106 52.5749 33.2865 53.9794 30.0305 53.9794ZM25.7988 51.0831C26.0807 51.3011 26.6455 51.5923 27.2742 51.7493C28.2299 51.9884 29.1569 52.1097 30.0311 52.1097C32.6947 52.1097 34.8334 51.0069 36.3867 48.8319C36.7108 48.3784 36.6135 47.8024 36.5268 47.4995C36.3451 46.8649 35.894 46.2878 35.4293 46.095C35.1774 45.9907 34.9682 45.911 34.776 45.911C34.6729 45.911 34.3588 45.911 33.8303 46.5022C33.4656 46.9124 33.115 47.3349 32.7791 47.769C31.558 49.3194 30.9985 49.8456 27.3656 50.5938C26.4791 50.7755 26.0244 50.9606 25.7988 51.0831ZM32.9877 46.7706C32.7645 46.7702 32.5488 46.6901 32.3796 46.5446C32.2103 46.3991 32.0987 46.1979 32.0649 45.9772C32.0416 45.822 32.026 45.6658 32.018 45.5091C29.6367 45.4646 27.3393 44.4427 25.5949 42.6227C23.3895 40.3218 22.3858 37.1337 22.8416 33.8765C23.3367 30.3392 23.1516 27.2167 23.052 25.5392C23.0244 25.0728 23.0045 24.7358 23.0057 24.5026C23.0074 24.2067 23.0133 23.4222 25.636 22.0927C26.5688 21.6198 28.4391 20.7948 30.4822 20.5833C33.8672 20.2335 36.0985 21.7411 36.7664 24.829C38.5694 33.1657 36.9094 36.853 35.6971 39.546C35.4715 40.0476 35.2582 40.521 35.0877 40.9798L34.9371 41.3841C34.2967 43.1015 33.743 44.5851 33.9129 45.6931C33.9316 45.8144 33.9261 45.9383 33.8969 46.0575C33.8677 46.1767 33.8153 46.2891 33.7426 46.388C33.67 46.487 33.5785 46.5707 33.4735 46.6344C33.3685 46.698 33.252 46.7403 33.1307 46.7589L32.9877 46.7706ZM24.8813 24.7616L24.9176 25.429C25.0207 27.1716 25.2129 30.4142 24.6926 34.136C24.317 36.8226 25.1373 39.4446 26.9444 41.329C28.3723 42.8185 30.2514 43.6405 32.1826 43.6405H32.2225C32.4387 42.7294 32.7979 41.7673 33.1846 40.7308L33.334 40.3288C33.5268 39.8108 33.7524 39.3093 33.9914 38.7784C35.158 36.1862 36.6106 32.9595 34.9377 25.2245C34.6067 23.6923 33.8033 22.8058 32.4832 22.5134C29.7715 21.9145 25.7303 23.9542 24.8813 24.7616ZM30.5238 24.3649C30.477 24.6954 31.1291 25.5778 31.9799 25.6956C32.8289 25.8145 33.5555 25.1243 33.6018 24.7938C33.6481 24.4634 32.9965 24.0989 32.1457 23.9806C31.2955 23.8622 30.569 24.0345 30.5238 24.3649ZM32.175 26.0208L31.9365 26.0044C31.4092 25.9312 30.876 25.5989 30.511 25.1149C30.3826 24.945 30.1735 24.6157 30.2151 24.3216C30.2742 23.8903 30.8004 23.6319 31.6213 23.6319C31.8047 23.6319 31.9957 23.6454 32.1879 23.6724C32.6367 23.7345 33.0533 23.864 33.361 24.0356C33.8942 24.3333 33.9334 24.6655 33.9094 24.8372C33.8438 25.3136 33.0861 26.0208 32.175 26.0208ZM30.8338 24.42C30.8602 24.6239 31.3652 25.2966 32.0227 25.3874L32.1756 25.3979C32.7826 25.3979 33.2361 24.9204 33.2895 24.764C33.2332 24.6573 32.843 24.3925 32.1029 24.2894C31.9436 24.2665 31.7829 24.2549 31.6219 24.2548C31.1461 24.2548 30.8936 24.362 30.8338 24.42ZM56.3836 23.6905C56.4299 24.021 55.7783 24.9034 54.9281 25.0218C54.0785 25.1401 53.3514 24.4505 53.3045 24.12C53.26 23.7895 53.9115 23.4245 54.7611 23.3067C55.6108 23.1878 56.3367 23.3606 56.3836 23.6905ZM54.7318 25.1905C53.9139 25.1905 53.2078 24.5542 53.1498 24.1411C53.0824 23.6454 53.8986 23.2687 54.7389 23.152C54.924 23.1263 55.1074 23.1134 55.2838 23.1134C56.0092 23.1134 56.4897 23.3261 56.5377 23.6694C56.5688 23.8915 56.3983 24.2343 56.1047 24.5436C55.9108 24.747 55.5035 25.0991 54.9486 25.1759L54.7318 25.1905ZM55.2844 23.4251C55.1227 23.4251 54.9539 23.4374 54.7828 23.4608C53.9385 23.5786 53.4346 23.9173 53.4592 24.0989C53.4873 24.2987 54.0264 24.8794 54.7324 24.8794L54.9065 24.8671C55.3676 24.8032 55.7139 24.502 55.8791 24.3286C56.1387 24.0561 56.2418 23.7995 56.2295 23.7122C56.2131 23.5962 55.9014 23.4251 55.2844 23.4251ZM57.6076 42.669C57.4382 42.6691 57.272 42.6232 57.1268 42.5361C56.9815 42.449 56.8626 42.324 56.7829 42.1745C56.7033 42.025 56.6657 41.8567 56.6743 41.6876C56.6829 41.5184 56.7374 41.3548 56.8318 41.2142C58.8229 38.2405 58.4584 35.2083 58.1063 32.2757C57.9557 31.0265 57.801 29.7345 57.8408 28.4946C57.8819 27.219 58.0442 26.1667 58.2006 25.1489C58.3863 23.9431 58.5621 22.804 58.4895 21.4517C58.4828 21.3291 58.5004 21.2064 58.5412 21.0906C58.582 20.9748 58.6452 20.8682 58.7272 20.7769C58.8092 20.6855 58.9084 20.6112 59.0191 20.5582C59.1298 20.5052 59.2499 20.4745 59.3725 20.4679C59.4951 20.4613 59.6177 20.4788 59.7335 20.5196C59.8493 20.5604 59.9559 20.6236 60.0472 20.7056C60.1386 20.7876 60.2129 20.8868 60.2659 20.9975C60.319 21.1082 60.3497 21.2283 60.3563 21.3509C60.4395 22.8966 60.2408 24.1856 60.0486 25.4331C59.9004 26.3958 59.7469 27.3913 59.71 28.5544C59.6742 29.6524 59.8143 30.8185 59.9625 32.0524C60.3375 35.1708 60.7623 38.7052 58.3858 42.2542C58.3002 42.382 58.1844 42.4867 58.0487 42.5591C57.9129 42.6315 57.7614 42.6692 57.6076 42.669Z" fill="white"/>
</svg>
