<svg width="76" height="75" viewBox="0 0 76 75" fill="none" xmlns="http://www.w3.org/2000/svg">
<path fill-rule="evenodd" clip-rule="evenodd" d="M30.8716 13.4865C33.0724 13.4865 35.2732 13.5205 37.4711 13.4631C38.0541 13.4479 39.1 13.9301 39.0531 12.7184C39.0173 11.7322 38.1027 12.0891 37.5484 12.0803C35.0658 12.041 32.575 11.9467 30.1023 12.102C28.3427 12.2115 27.8242 11.5436 28.0451 9.92991C28.1213 9.37327 28.048 8.7967 28.0597 8.22952C28.1371 4.45256 29.05 3.16702 32.7132 2.23538C36.7492 1.20998 40.8795 1.24397 44.9043 2.12756C48.5224 2.92209 50.0254 5.73694 49.8425 8.34084C49.6199 11.5184 49.7922 14.7235 49.7892 17.9168C49.784 21.9322 47.7091 24.0633 43.6609 24.119C40.3269 24.1647 36.9888 24.201 33.6566 24.1084C29.6851 23.9971 26.7718 27.2959 26.7519 31.0342C26.7519 31.3178 26.8005 31.6108 26.7443 31.8844C26.4584 33.2572 27.6009 35.4762 26.1455 35.884C23.9306 36.5063 21.3373 36.5063 19.3838 34.5299C18.7216 33.8619 18.1638 33.1137 17.8697 32.2488C16.3 27.6405 16.0521 22.9735 17.5298 18.293C18.4509 15.3715 20.9564 13.5545 24.0601 13.5024C26.33 13.4643 28.6005 13.4948 30.8705 13.4948L30.8716 13.4865ZM34.9158 6.97092C34.8209 5.85588 34.2214 5.04202 32.9845 5.00803C31.6316 4.97288 30.9326 5.79084 30.9308 7.12209C30.9297 8.35608 31.6017 9.14651 32.8298 9.18225C34.1793 9.22151 34.8326 8.38538 34.9158 6.97092Z" fill="#386F9F"/>
<path fill-rule="evenodd" clip-rule="evenodd" d="M47.858 36.0774C45.3736 36.0774 42.888 36.0557 40.4037 36.0949C39.8441 36.102 38.9054 35.7481 38.8761 36.7049C38.8433 37.7901 39.8505 37.5076 40.4904 37.5141C42.9748 37.5451 45.4615 37.5715 47.9453 37.5024C49.2214 37.4672 49.7423 37.7115 49.8378 39.2162C50.2697 46.0278 47.3136 46.6166 41.8615 47.8559C38.7337 48.5666 35.3804 48.1899 32.296 46.8082C29.7455 45.6674 28.1804 44.0233 28.3779 40.9447C28.5736 37.9061 28.6064 34.8281 28.3726 31.7924C28.0914 28.1285 30.3706 25.4338 34.8033 25.4326C37.7857 25.4321 40.788 25.2047 43.7447 25.4766C47.9722 25.8645 51.2869 22.2 51.4322 17.9391C51.438 17.7979 51.4017 17.6461 51.438 17.5149C51.8107 16.2053 50.4853 14.2588 52.2583 13.5973C54.9378 12.5983 57.9595 13.6483 59.3283 15.6815C61.0539 18.2414 61.2871 21.2537 61.566 24.1951C61.8677 27.3656 60.9783 30.3504 59.6464 33.2104C58.7417 35.1498 57.2206 36.0873 55.1013 36.0903C52.6872 36.092 50.2738 36.0903 47.8591 36.0903C47.858 36.0856 47.858 36.0815 47.858 36.0774ZM47.2111 42.4055C46.9457 41.1949 46.3996 40.3688 44.9933 40.3342C43.5308 40.299 43.1535 41.393 43.1611 42.3697C43.1693 43.408 43.4587 44.6854 45.0419 44.5658C46.358 44.4651 46.9996 43.65 47.2111 42.4055Z" fill="#FFCF46"/>
<path fill-rule="evenodd" clip-rule="evenodd" d="M8.77876 67.2944C8.77876 68.8073 8.84732 70.2241 8.74653 71.6286C8.70317 72.2345 9.37114 73.3747 8.10024 73.3735C6.97993 73.3735 6.69224 72.4817 6.72798 71.4042C6.79653 69.3475 6.7479 67.2868 6.7479 65.2284V60.5421C6.7479 57.7179 7.50552 56.7616 10.2067 56.1768C12.718 55.6307 14.6915 56.4763 15.7063 58.6747C16.7211 60.8737 16.7997 63.1395 15.7842 65.3766C14.7834 67.5809 12.9401 68.4036 10.5788 67.7503C10.0409 67.6038 9.49771 67.4766 8.77876 67.2944ZM8.77876 61.7585C8.77876 62.5378 8.88423 63.3323 8.75708 64.0905C8.46294 65.843 9.58208 66.2749 10.9016 66.5866C12.2065 66.8948 13.1012 66.3399 13.6245 65.1903C14.504 63.2626 14.6516 61.2745 13.9836 59.236C13.3907 57.4243 12.0213 57.2122 10.4229 57.4372C8.84439 57.6616 8.63052 58.735 8.76821 60.0622C8.82681 60.6218 8.77876 61.1931 8.77876 61.7585ZM25.7633 67.2007C24.6823 67.4819 23.7436 67.7819 22.7827 67.9624C20.6791 68.3556 19.1217 67.2007 18.5739 65.0948C17.8942 62.4886 18.4696 59.8923 18.4872 57.2919C18.4948 56.1065 19.5916 56.5688 20.3504 55.9337C20.3504 58.7169 20.361 61.1192 20.3469 63.5198C20.3393 64.7257 20.651 65.7171 21.7913 66.3528C23.0499 67.0548 24.0823 66.3862 25.178 65.9356C25.9631 65.6128 25.8653 64.9536 25.8665 64.3266C25.8723 62.0579 25.8659 59.7915 25.8735 57.5227C25.8747 56.9632 25.8167 56.2794 26.6428 56.3069C27.3793 56.3309 27.6999 56.7686 27.6875 57.5714C27.6342 61.3255 27.7403 65.0848 27.5879 68.8337C27.4725 71.6684 25.4727 73.3999 22.5957 73.527C22.1651 73.5452 21.7139 73.585 21.5528 73.0507C21.3073 72.228 21.9735 72.3833 22.4112 72.2432C25.5758 71.2366 25.9895 70.6354 25.7633 67.2007ZM39.1368 57.4595C39.9741 57.064 40.4551 56.7018 40.9842 56.604C43.9532 56.055 46.2284 56.2641 46.2225 60.2632C46.2184 62.3227 46.2237 64.3829 46.2184 66.4419C46.2172 67.0184 46.2541 67.5798 45.3946 67.6296C44.4881 67.6835 44.2889 67.1649 44.293 66.4542C44.3036 64.4696 44.3575 62.485 44.3557 60.5011C44.3545 58.96 44.0399 57.596 42.0799 57.6007C40.3608 57.6036 39.1432 58.8868 39.1344 60.6575C39.1245 62.5743 39.1251 64.4911 39.1362 66.4079C39.1379 67.0888 39.1526 67.6858 38.1682 67.6296C37.2817 67.5768 37.3907 66.9792 37.3907 66.429C37.3848 61.3899 37.4094 56.3456 37.3666 51.303C37.359 50.4194 37.7077 49.871 38.4916 49.8335C39.5979 49.7825 39.0911 50.7499 39.1075 51.235C39.1795 53.2102 39.1368 55.1901 39.1368 57.4595ZM48.5059 61.9776C48.394 58.0431 50.2602 55.9425 53.6387 56.0643C55.3344 56.1264 56.6065 56.8788 57.4274 58.3436C58.8776 60.9347 58.6813 63.5268 57.1122 65.9532C56.034 67.6196 54.3758 68.4054 52.3543 67.9764C50.361 67.5546 48.8 65.7598 48.5176 63.6681C48.4426 63.1143 48.5059 62.5407 48.5059 61.9776ZM56.3106 62.0696C56.2215 61.3829 56.2373 60.4255 55.9514 59.5712C55.5606 58.3993 54.8481 57.4559 53.3944 57.3915C51.9278 57.3282 51.1959 58.1854 50.7067 59.372C49.9385 61.2347 49.9883 63.105 50.8204 64.9343C51.3547 66.1126 52.1797 66.9751 53.6094 66.736C55.0174 66.5011 55.8483 65.5782 56.136 64.2089C56.2666 63.5884 56.2456 62.9386 56.3106 62.0702V62.0696ZM60.4163 62.594C60.4163 61.8839 60.4028 61.1749 60.4186 60.4682C60.4514 59.1059 60.0172 57.5966 61.8541 56.9005C63.9577 56.1059 66.0424 55.5106 68.16 56.7405C68.9522 57.2011 69.244 58.0378 69.2522 58.9261C69.2739 61.4052 69.2411 63.8854 69.2745 66.3645C69.2862 67.2294 69.0588 67.6618 68.0868 67.6384C67.0215 67.6132 67.2459 66.8866 67.253 66.3065C67.2782 64.3261 67.4159 62.3473 67.3784 60.3698C67.3291 57.8796 65.9627 56.8641 63.6348 57.4753C62.6692 57.7296 62.0657 58.1983 62.1131 59.3936C62.2075 61.7268 62.1348 64.0682 62.1436 66.4056C62.1459 67.0829 62.1559 67.6829 61.1786 67.6261C60.2832 67.5745 60.4297 66.9552 60.4227 66.4179C60.4063 65.1429 60.418 63.8673 60.4163 62.594ZM34.8881 57.0722C34.7416 57.2456 34.6186 57.5175 34.4897 57.5198C32.167 57.552 32.8116 59.2858 32.7518 60.572C32.695 61.7702 32.7518 62.9743 32.7348 64.1761C32.7172 65.3702 32.8209 66.48 34.2741 66.797C34.6907 66.8872 34.8805 67.1274 34.7938 67.5434C34.6983 68.0028 34.3321 67.9847 33.9694 67.98C32.2995 67.9507 31.0614 66.77 31.0122 65.0415C30.9618 63.2755 31.0303 61.5054 30.9887 59.7411C30.967 58.9032 31.4024 57.8339 30.0512 57.5016C29.903 57.4659 29.8502 57.0458 29.7536 56.8061C31.5559 56.2407 30.8083 54.6862 31.0555 53.5067C31.1727 52.9483 31.703 52.7954 32.204 52.7479C32.7108 52.6999 32.7149 53.11 32.7313 53.4528C32.7981 54.8122 32.0944 56.6315 34.5969 56.5325C34.6807 56.5296 34.7786 56.8618 34.8881 57.0716V57.0722Z" fill="#386F9F"/>
</svg>
