<svg width="75" height="75" viewBox="0 0 75 75" fill="none" xmlns="http://www.w3.org/2000/svg">
<path fill-rule="evenodd" clip-rule="evenodd" d="M36.4868 6.37498C36.3761 6.43943 35.9114 7.10623 35.4538 7.85681C34.3054 9.74177 34.2925 9.74295 32.7497 8.11931C31.746 7.06345 31.5034 6.87009 31.18 6.87244C30.9696 6.87361 30.7042 6.94509 30.5894 7.03123C30.4751 7.11736 30.1511 7.80291 29.8698 8.55466C29.2259 10.2767 29.1948 10.3324 28.838 10.401C28.6183 10.4426 28.1952 10.207 27.181 9.47869C26.4321 8.94021 25.6974 8.50017 25.5485 8.50017C24.931 8.50017 24.7569 8.83767 24.4628 10.6054C24.089 12.8531 24.1019 12.8455 22.0757 11.925C21.2577 11.5541 20.4819 11.25 20.3513 11.25C20.2206 11.25 19.9728 11.3906 19.8011 11.5623C19.4894 11.8746 19.4888 11.8758 19.5737 13.5943L19.6593 15.3146L19.3341 15.4886C19.0458 15.6427 18.8472 15.624 17.571 15.3222C15.9052 14.9291 15.5536 14.9396 15.2161 15.3937L14.9694 15.7254L15.3005 17.1439C15.4821 17.9238 15.6573 18.675 15.6901 18.8127C15.7224 18.9498 15.6667 19.1695 15.5659 19.3002C15.3995 19.5152 15.2226 19.5345 13.681 19.5111C11.0718 19.4701 10.9235 19.6939 12.0017 22.047C12.3444 22.7941 12.6251 23.4726 12.6251 23.5541C12.6251 23.9842 12.2823 24.1406 10.8099 24.3808C9.98603 24.515 9.27002 24.6252 9.21846 24.6252C9.16689 24.6252 9.01221 24.7377 8.8751 24.8748C8.42685 25.323 8.554 25.7437 9.5706 27.1787C10.8368 28.9658 10.8345 28.9722 8.74267 29.7726C6.36377 30.6826 6.31572 30.907 8.12685 32.625C9.81377 34.2246 9.81553 34.2011 7.90596 35.4017C6.45928 36.3105 6.43701 36.3322 6.4001 36.825C6.35557 37.4244 6.36611 37.4349 8.09346 38.4902C9.80146 39.5332 9.80146 39.5648 8.1251 41.151C6.32217 42.856 6.37783 43.1051 8.75849 44.0033C10.8386 44.7879 10.8415 44.7972 9.57295 46.5844C8.854 47.5974 8.6249 48.0193 8.6249 48.3322C8.6249 48.9176 8.92959 49.067 10.7501 49.3728C12.2835 49.6312 12.6251 49.783 12.6251 50.206C12.6251 50.2928 12.3438 50.9771 11.9999 51.726C10.93 54.0562 11.0519 54.2502 13.5843 54.2502C15.9427 54.2502 15.88 54.1781 15.372 56.3051C14.9888 57.9082 14.9829 58.2152 15.3298 58.5615C15.5952 58.8275 16.0956 58.7976 17.6606 58.4232C18.856 58.1379 19.0657 58.1179 19.3429 58.2662L19.6593 58.4355L19.5737 60.1553C19.4888 61.8744 19.4894 61.8756 19.8011 62.1879C19.9728 62.3596 20.2241 62.5002 20.3589 62.5002C20.4937 62.5002 21.2694 62.1978 22.0833 61.8281C24.103 60.9111 24.0901 60.9035 24.4628 63.1441C24.7581 64.9201 24.9304 65.25 25.5608 65.25C25.7173 65.25 26.4362 64.8281 27.1593 64.3125C28.429 63.4066 28.7583 63.2648 29.0964 63.4799C29.1837 63.5349 29.5224 64.2791 29.8487 65.1334C30.3286 66.3896 30.5044 66.7166 30.7716 66.8443C31.2802 67.0881 31.5948 66.8924 32.7901 65.5904C34.2333 64.0183 34.2925 64.026 35.4708 65.9355C36.7722 68.0437 37.1091 68.039 38.4433 65.8927C39.5929 64.0435 39.5794 64.0447 41.1333 65.6678C42.1651 66.7447 42.3849 66.9164 42.7329 66.9164C42.955 66.9164 43.2204 66.8332 43.3218 66.7312C43.4237 66.6293 43.7612 65.8763 44.0718 65.0584C44.3823 64.2398 44.704 63.5273 44.7872 63.4746C45.1159 63.2654 45.4563 63.4125 46.7243 64.3125C47.4708 64.8428 48.1733 65.25 48.3403 65.25C48.9603 65.25 49.1841 64.8099 49.4419 63.0802C49.6622 61.6054 49.7067 61.4642 49.9968 61.3172C50.2821 61.1724 50.4532 61.2211 51.7915 61.8287C52.6054 62.1978 53.3811 62.5002 53.5159 62.5002C53.6507 62.5002 53.9062 62.3554 54.0825 62.1785L54.4042 61.8574L54.3157 60.208C54.2313 58.633 54.239 58.5486 54.4903 58.3213C54.7487 58.0875 54.7751 58.0886 56.22 58.4185C57.9696 58.8181 58.296 58.8287 58.6247 58.5C58.9458 58.1789 58.9423 58.1086 58.5028 56.2553C58.0101 54.1763 57.9438 54.2502 60.3122 54.2502C61.9265 54.2502 62.1063 54.2273 62.312 54.0006C62.6554 53.6209 62.5739 53.1861 61.8831 51.7136C61.5345 50.9719 61.2515 50.2969 61.2538 50.2136C61.2655 49.776 61.6095 49.6265 63.1991 49.3681C64.1718 49.2105 64.8995 49.0277 65.0313 48.9088C65.4731 48.5097 65.3108 47.9906 64.3024 46.5767C63.0386 44.8049 63.0438 44.7879 65.0677 44.042C67.4911 43.149 67.5603 42.8513 65.7468 41.1281C64.0669 39.532 64.0663 39.5408 65.9062 38.4111C68.1304 37.0459 68.1339 36.7383 65.9454 35.3801C64.0634 34.2123 64.0646 34.2287 65.7515 32.6267C67.5608 30.9076 67.5116 30.6826 65.1321 29.7726C63.0321 28.9693 63.0257 28.9494 64.3019 27.198C65.0618 26.1551 65.2499 25.8088 65.2499 25.4513C65.2499 24.8267 64.9698 24.6867 63.1276 24.389C61.5884 24.1406 61.2497 23.9894 61.2497 23.5517C61.2497 23.4685 61.531 22.7988 61.8749 22.0623C62.5481 20.6203 62.6425 20.0431 62.2616 19.698C62.0571 19.5129 61.7829 19.4865 60.3157 19.5105C58.7806 19.5363 58.5843 19.5146 58.3716 19.3008C58.139 19.067 58.1413 19.0342 58.5046 17.5183C58.9499 15.6609 58.9517 15.6158 58.5854 15.2719C58.214 14.9226 57.9819 14.9285 56.2763 15.3299C55.0335 15.6228 54.8278 15.6422 54.5454 15.491L54.2249 15.3193L54.3134 13.6049L54.4024 11.891L54.0819 11.5705C53.9056 11.3941 53.6554 11.25 53.5253 11.25C53.3958 11.25 52.6241 11.5564 51.8108 11.9303C50.4526 12.5554 50.3067 12.597 50.0132 12.4435C49.7202 12.29 49.6716 12.1388 49.4214 10.6113C49.1325 8.84412 48.9538 8.50017 48.3263 8.50017C48.1774 8.50017 47.4397 8.94255 46.6868 9.48337C45.4505 10.3717 45.2847 10.4554 44.9765 10.3482C44.7216 10.2592 44.5733 10.0652 44.3923 9.58298C44.2581 9.22791 44.0015 8.54353 43.821 8.06248C43.4565 7.09216 43.2532 6.87478 42.7071 6.87478C42.4024 6.87478 42.1265 7.09392 41.1374 8.12107C39.5829 9.73591 39.577 9.73533 38.4339 7.86033C37.9769 7.11091 37.4993 6.44177 37.3722 6.3738C37.0862 6.22029 36.7499 6.22087 36.4868 6.37498ZM37.9036 12.0205C39.2577 12.9844 38.5376 15.2502 36.8771 15.2502C35.2657 15.2502 34.4542 13.309 35.605 12.2068C36.2542 11.5845 37.1853 11.509 37.9036 12.0205ZM36.2009 18.0052C37.0886 18.3428 37.453 18.14 39.4798 16.1865L41.0026 14.7181L41.6472 14.8037C43.6687 15.072 47.6894 16.8381 49.9997 18.4722C52.1226 19.9746 54.9438 23.0344 56.1462 25.1385L56.4034 25.589L55.2644 28.1554C54.6374 29.567 54.1247 30.8701 54.1247 31.0523C54.1247 31.4724 54.4001 32.1369 54.6655 32.3566C54.7774 32.4498 55.8409 32.9619 57.0286 33.4945L59.1872 34.4636L59.2722 35.0127C59.3817 35.7281 59.3964 37.4853 59.2968 37.9845L59.2188 38.3748H57.9866C56.5575 38.3748 56.6677 38.247 56.5903 40.0002C56.5341 41.2711 56.227 41.9736 55.5286 42.4283C54.3907 43.1707 52.5116 43.0359 51.7147 42.1553C51.5923 42.0199 51.3544 41.3396 51.1856 40.6429C50.6929 38.608 50.0308 37.4654 48.7007 36.3539C48.2806 36.0029 47.9372 35.6754 47.9372 35.6256C47.9372 35.5763 48.3989 35.1873 48.9638 34.7625C51.0204 33.2121 52.2028 31.4074 52.3329 29.6197C52.5808 26.2101 49.8644 23.032 45.8237 22.0019C44.8657 21.7576 44.4567 21.75 32.605 21.75C25.8784 21.75 20.3747 21.706 20.3747 21.6527C20.3747 21.5267 21.8694 20.076 22.7501 19.3482C25.1683 17.349 28.3095 15.7758 31.5626 14.9355L32.6876 14.6443L34.286 16.265C35.1655 17.1562 36.0274 17.939 36.2009 18.0052ZM16.0733 28.4332C16.8099 28.9154 17.1116 30.1271 16.6769 30.8554C16.0042 31.9828 14.3003 32.0302 13.627 30.9404C12.6479 29.3572 14.5335 27.4242 16.0733 28.4332ZM59.462 28.4947C61.3886 29.6695 59.8956 32.5594 57.8331 31.647C56.4562 31.0377 56.4122 29.1556 57.7587 28.4689C58.3206 28.1824 58.9663 28.1924 59.462 28.4947ZM21.7499 35.6877V42.8748H15.396L15.144 41.7814C14.6483 39.6281 14.4397 37.4004 14.5645 35.5758L14.6519 34.2937L16.8362 33.314C18.2067 32.7 19.088 32.2318 19.2017 32.0578C19.6985 31.3002 19.6511 30.7588 18.9538 29.2189L18.628 28.5H21.7499V35.6877ZM40.0429 28.8129C41.4034 29.1668 42.1224 29.8869 42.1241 30.8965C42.1253 31.6377 41.7579 32.1029 40.8468 32.5142C40.2017 32.806 40.0991 32.8131 36.031 32.8529L31.8749 32.8927V28.6248H35.5985C38.5071 28.6248 39.4804 28.6658 40.0429 28.8129ZM38.639 39.1265C39.3134 39.314 40.1108 39.9 40.5198 40.5088C40.9493 41.1486 41.2007 41.9806 41.796 44.7369C42.2987 47.0666 42.6222 47.8283 43.528 48.8197C44.6501 50.0472 44.3899 49.9998 49.995 49.9998C52.6792 49.9998 54.8747 50.0426 54.8747 50.0953C54.8747 50.1896 53.0261 52.3752 52.9464 52.3752C52.9235 52.3752 51.9579 52.173 50.8007 51.9258C47.5329 51.2279 47.4151 51.3099 46.6651 54.8121L46.1829 57.0621L45.7476 57.2765C45.021 57.6351 42.6597 58.3734 41.4356 58.6254C39.413 59.0414 37.2116 59.182 35.2769 59.0185C31.9786 58.739 27.611 57.4594 27.4405 56.7217C27.4042 56.5652 27.1845 55.5527 26.953 54.4711C26.721 53.3894 26.4392 52.3635 26.3267 52.1912C25.7858 51.3662 25.2169 51.3152 22.7149 51.8689C21.7675 52.0787 20.9407 52.2498 20.8774 52.2498C20.7585 52.2498 19.0001 50.2166 19.0001 50.0795C19.0001 50.0367 23.1767 49.9869 28.2813 49.9693L37.5626 49.9377L37.596 46.6406C37.6194 44.3127 37.5872 43.2926 37.4864 43.1719C37.3739 43.0359 36.7751 43.0002 34.6095 43.0002H31.8749V39L35.0313 39.0006C36.7669 39.0011 38.3905 39.058 38.639 39.1265ZM24.3374 54.1201C25.8134 55.0195 25.1056 57.3761 23.3601 57.3744C21.57 57.3732 20.9067 55.0383 22.4319 54.1078C22.9364 53.8002 23.8229 53.806 24.3374 54.1201ZM51.3644 54.2185C52.088 54.7488 52.3288 55.8521 51.8806 56.5869C50.7034 58.5176 47.7597 56.983 48.7429 54.9515C49.2263 53.9537 50.5112 53.5939 51.3644 54.2185Z" fill="white"/>
</svg>
