<svg width="75" height="75" viewBox="0 0 75 75" fill="none" xmlns="http://www.w3.org/2000/svg">
<path d="M4.10156 1.75781V5.59805H28.0031V1.75781H4.10156ZM46.1426 1.75781V5.59805H70.8984V1.75781H46.1426ZM4.10156 9.86426V13.7045H28.0031V9.86426H4.10156ZM46.1426 9.86426V13.7045H70.8984V9.86426H46.1426ZM4.10156 17.7574V21.5977H28.0031V17.7574H4.10156ZM46.1426 17.7574V21.5977H70.8984V17.7574H46.1426ZM4.10156 35.5061C4.10156 48.7324 4.14434 49.2873 5.5957 53.6174C7.15313 58.3324 9.24492 61.7455 12.5098 65.0092C18.2291 70.684 25.6348 73.4783 35.7926 73.7982C47.4451 74.1615 56.3016 71.2383 62.5758 64.9242C65.7984 61.6816 68.2096 57.607 69.5965 53.0631C70.8562 48.9674 70.8984 48.2848 70.8984 35.4422V23.7305L58.585 23.7732L46.2498 23.8377C46.2498 23.8377 46.1432 23.8764 46.1432 40.7965C46.1432 60.123 42.9053 63.5953 36.6557 63.5953C30.4061 63.5953 27.9246 60.273 28.0459 40.3061C28.1467 23.7867 27.9814 23.7305 27.9814 23.7305H4.10156V35.5061Z" fill="#4051B5"/>
</svg>
