<svg width="75" height="75" viewBox="0 0 75 75" fill="none" xmlns="http://www.w3.org/2000/svg">
<path d="M2.14224 26.3925C2.14224 26.3925 0.368608 25.1087 2.49966 23.3966L7.46138 18.9469C7.46138 18.9469 8.88287 17.4475 10.3846 18.7548L56.1903 53.5173V70.1872C56.1903 70.1872 56.1674 72.8051 52.817 72.5169L2.14224 26.3925Z" fill="#2489CA"/>
<path d="M13.9506 37.1362L2.14221 47.8958C2.14221 47.8958 0.929321 48.7999 2.14221 50.4183L7.62424 55.4145C7.62424 55.4145 8.9262 56.8179 10.8516 55.2224L23.3666 45.7079L13.9506 37.1362Z" fill="#1070B3"/>
<path d="M34.6781 37.2252L56.3302 20.652L56.1902 4.07173C56.1902 4.07173 55.2656 0.452975 52.1806 2.33794L23.3666 28.6237L34.6781 37.2252Z" fill="#0877B9"/>
<path d="M52.8164 72.5374C54.0732 73.8282 55.5979 73.4046 55.5979 73.4046L72.4711 65.0714C74.6314 63.5948 74.3291 61.7637 74.3291 61.7637V11.9913C74.3291 9.8028 72.0955 9.04753 72.0955 9.04753L57.4699 1.98054C54.2748 0.000655532 52.1807 2.33796 52.1807 2.33796C52.1807 2.33796 54.8719 0.394405 56.1902 4.07234V69.8831C56.1902 70.336 56.0941 70.7796 55.902 71.1803C55.5176 71.9608 54.6797 72.6862 52.677 72.3821L52.8164 72.5374Z" fill="#3C99D4"/>
</svg>
